<svg xmlns="http://www.w3.org/2000/svg" xmlns:svg="http://www.w3.org/2000/svg">
 <!-- Created with SVG-edit - http://svg-edit.googlecode.com/ -->

 <title>Prueba</title>
 <g>
  <title>Layer 1</title>
  <path id="svg_1" d="m10.399994,406.399994c0,0 -2,-399 -2,-399c0,0 220,0 220,-1c0,-1 -8,59 -8.399994,58.600006c-0.399994,-0.399994 -139.600006,-0.600006 -140,-1c-0.399994,-0.399994 -5.600006,57.399994 -6,57c-0.399994,-0.399994 60.399994,-0.600006 60,-1c-0.399994,-0.399994 -4.600006,80.399994 -5,80c-0.399994,-0.399994 -47.600006,-2.600006 -48.600006,-2.600006c-1,0 -1,207 -2,207c-1,0 -68,2 -68,2z" stroke-linecap="null" stroke-linejoin="null" stroke-dasharray="null" stroke-width="0" stroke="#000000" fill="#ff0000"/>
  <path id="svg_2" d="m165.399994,178.399994c46,24 53,-71 52,-71c-1,0 -61,42 -62,43c-1,1 -7,55 -7,57c0,2 14,34 15,35c1,1 45,17 44.600006,16.600006c-0.399994,-0.399994 29.399994,16.399994 29.399994,17.399994c0,1 5,35 4,35c-1,0 -50,19 -50,20c0,1 -41,12 -42,12c-1,0 -6,36 -6.399994,35.600006c-0.399994,-0.399994 55.399994,14.399994 55,14c-0.399994,-0.399994 47.399994,-0.600006 51.399994,-0.600006c4,0 73,-11 75,-13c2,-2 22,-48 23,-48c1,0 12,-31 12,-32c0,-1 -47,-72 -48,-72c-1,0 -43,-12 -45,-12c-2,0 -70,-32 -70.399994,-32.399994c-0.399994,-0.399994 60.399994,-26.600006 60.399994,-26.600006c0,0 47,4 48,4c1,0 16,-45 16,-46c0,-1 -25,-19.999992 -28,-19.999992c-3,0 -74,5 -75,5c-1,0 -98,54.999992 -52,78.999992z" stroke-linecap="null" stroke-linejoin="null" stroke-dasharray="null" stroke-width="0" stroke="#000000" fill="#3f7f00"/>
  <path id="svg_6" d="m376.399994,391.399994l-0.399994,-297.399994l141,3c0,0 23.400024,46.399994 23.400024,47.399994c0,1 2,85 1,85c-1,0 -44,42 -44.400024,41.600006c-0.400024,-0.399994 55.400024,121.399994 54.400024,121.399994c-1,0 -62,-3 -63,-3c-1,0 -56.000031,-115 -57.000031,-114c-1,1 1,113 1,113c0,0 -56,3 -56,3z" stroke-linecap="null" stroke-linejoin="null" stroke-dasharray="null" stroke-width="0" stroke="#000000" fill="#0000ff"/>
  <path id="svg_7" d="m429.399994,155.399994c0,-1 -1,49 -1.399994,48.600006c-0.399994,-0.399994 49.400024,-1.600006 49,-2c-0.400024,-0.399994 12.400024,-25.600006 12,-26c-0.400024,-0.399994 -6.599976,-17.600006 -6.599976,-18.600006c0,-1 -53.000031,-2 -53.000031,-2z" stroke-linecap="null" stroke-linejoin="null" stroke-dasharray="null" stroke-width="0" stroke="#000000" fill="#ffffff"/>
 </g>
</svg>
